<svg xmlns="http://www.w3.org/2000/svg" viewBox="0 0 1080 1080"><defs><style>.cls-1{font-size:88.24px;}.cls-1,.cls-2,.cls-3{fill:#b77168;}.cls-1,.cls-2{font-family:SreeKrushnadevaraya, Sree Krushnadevaraya;}.cls-2{font-size:41.4px;}</style></defs><title>Black &amp;amp; White</title><g id="Layer_1" data-name="Layer 1"><text class="cls-1" transform="translate(259.84 621.72)">Where you want</text><text class="cls-2" transform="translate(413.37 673.98)">Travel Advisors</text><path class="cls-3" d="M248.8,384.28a5.8,5.8,0,0,0-.51,2.23,11.22,11.22,0,0,0,.51,2.52q20.54,1.52,26,12.43l22.73,45.07-25.18,52.55H271q-52-100.35-52.36-101.41a6.32,6.32,0,0,1-.32-1.87c0-1.88,1.39-3.41,4.19-4.59S230.47,389.3,238,389a7.52,7.52,0,0,0,.51-2.52,9.07,9.07,0,0,0-.51-2.23q-18.21.81-33.32.81-5.53,0-12.55-.1l76.46,147,35-73.24,38.87,77h5.81L273.51,385Q260.36,384.8,248.8,384.28Z"/><path class="cls-3" d="M161.25,384.28a5.65,5.65,0,0,0-.52,2.23,10.85,10.85,0,0,0,.52,2.52q23.12,1.73,28.8,12.43l70.89,134.3h5.81L188.3,384.93Q176.61,384.74,161.25,384.28Z"/><path class="cls-3" d="M438.38,384.28q-13.69.62-27.77.61-14.46,0-30.34-.61a5.35,5.35,0,0,0-.52,2,17.93,17.93,0,0,0,.52,2.72q11.36,1,16.4,2.48c3.35,1,5,2.54,5,4.7a8.61,8.61,0,0,1-.77,3.94l-47.14,98.93H352.5l-47.65-97.62q-1.82-4.95-1.81-5,0-4,4.59-5.51T327.84,389a7.52,7.52,0,0,0,.51-2.52,9.07,9.07,0,0,0-.51-2.23q-18.21.81-38.62.81c-4.08,0-8.05,0-11.93-.06L350.1,531.92l63.74-131.77a18.28,18.28,0,0,1,9.36-8.09,54.82,54.82,0,0,1,15.18-3,6.5,6.5,0,0,0,.52-2.72A5.54,5.54,0,0,0,438.38,384.28Z"/><path class="cls-3" d="M729.18,384.28a5.65,5.65,0,0,0-.52,2.23,10.85,10.85,0,0,0,.52,2.52q20.54,1.52,26,12.43l22.73,45.07-25.18,52.55h-1.29q-52-100.35-52.37-101.41a6.66,6.66,0,0,1-.32-1.87q0-2.82,4.2-4.59T718.33,389a7.55,7.55,0,0,0,.52-2.52,9.25,9.25,0,0,0-.52-2.23q-18.21.81-33.32.81-5.53,0-12.55-.1l76.47,147,35-73.24,38.87,77h5.81L753.88,385Q740.73,384.8,729.18,384.28Z"/><path class="cls-3" d="M641.62,384.28a5.83,5.83,0,0,0-.52,2.23,11.43,11.43,0,0,0,.52,2.52q23.11,1.73,28.8,12.43l70.9,134.3h5.81L668.68,384.93Q657,384.74,641.62,384.28Z"/><path class="cls-3" d="M918.75,384.28q-13.68.62-27.76.61-14.47,0-30.35-.61a5.54,5.54,0,0,0-.52,2,19.43,19.43,0,0,0,.52,2.72q11.36,1,16.4,2.48c3.36,1,5,2.54,5,4.7a8.6,8.6,0,0,1-.78,3.94l-47.13,98.93h-1.29l-47.66-97.62q-1.8-4.95-1.8-5c0-2.69,1.52-4.53,4.58-5.51s9.79-1.6,20.21-1.87a7.55,7.55,0,0,0,.52-2.52,9.25,9.25,0,0,0-.52-2.23q-18.21.81-38.61.81c-4.09,0-8.06,0-11.94-.06l72.81,146.89,63.75-131.77a18.24,18.24,0,0,1,9.36-8.09,54.74,54.74,0,0,1,15.17-3,6.35,6.35,0,0,0,.52-2.72A5.35,5.35,0,0,0,918.75,384.28Z"/><path class="cls-3" d="M575.06,527.83c-2.45-.3-5.47-.79-9-1.47a22.69,22.69,0,0,1-8.2-2.88,5.72,5.72,0,0,1-3-4.49q-.58-13.28-.9-25L476.53,385q-13.3-.19-30.67-.68a5.65,5.65,0,0,0-.52,2.23,10.85,10.85,0,0,0,.52,2.52,92.05,92.05,0,0,1,17.56,2.73,27.87,27.87,0,0,1,12.4,7l50.49,69.12q-.39,25.77-1.68,51.14a5.7,5.7,0,0,1-3,4.49,22.69,22.69,0,0,1-8.2,2.88q-5.36,1-9,1.47t-9.62.86a6.09,6.09,0,0,0-.51,2.73,5.46,5.46,0,0,0,.51,2q21.82-.62,44.94-.61t44.94.61a5.5,5.5,0,0,0,.52-2,7,7,0,0,0-.52-2.73Q578.74,528.28,575.06,527.83Z"/><path class="cls-3" d="M634.14,384.28q-14.71.62-29.31.61-13.56,0-30.22-.61a5.35,5.35,0,0,0-.52,2,17.93,17.93,0,0,0,.52,2.72,87.85,87.85,0,0,1,15.3,2.38q5.1,1.47,5.1,4.6a6.72,6.72,0,0,1-1.55,4.14l-43.39,56.49h-1L509.39,401c-1.46-2.16-2.19-3.67-2.19-4.55q0-3.65,7-5.25T536.38,389a7.31,7.31,0,0,0,.52-2.52,8.77,8.77,0,0,0-.52-2.23q-19.5.81-43.64.81-5.16,0-11.3-.07l72.33,101.87q-.21-10.14-.21-19l53.59-67.7a25.11,25.11,0,0,1,11.11-8.09,61.55,61.55,0,0,1,15.88-3,6.35,6.35,0,0,0,.52-2.72A5.35,5.35,0,0,0,634.14,384.28Z"/></g></svg>