<svg id="Layer_1" data-name="Layer 1" xmlns="http://www.w3.org/2000/svg" viewBox="0 0 66.29 76.15"><defs><style>.cls-1{fill:#496560;}.cls-2{fill:#b77168;}.cls-3{fill:#c79d8e;}</style></defs><title>logo</title><path class="cls-1" d="M24,45a.74.74,0,0,0,0,.18,1.72,1.72,0,0,0,0,.21c1.12.08,1.83.42,2.12,1L28,50.06,26,54.34h-.11c-2.82-5.45-4.25-8.21-4.26-8.26a.5.5,0,0,1,0-.16c0-.15.11-.28.34-.37a3.9,3.9,0,0,1,1.26-.18.56.56,0,0,0,0-.21.65.65,0,0,0,0-.18c-1,.05-1.9.07-2.72.07h-1l6.23,12,2.86-6,3.17,6.27h.47L26.05,45C25.33,45,24.66,45,24,45Z" transform="translate(-16.85 -11.18)"/><path class="cls-1" d="M16.89,45a.74.74,0,0,0,0,.18,1.72,1.72,0,0,0,0,.21c1.26.09,2,.43,2.35,1L25,57.33h.48L19.1,45Z" transform="translate(-16.85 -11.18)"/><path class="cls-1" d="M39.49,45c-.74,0-1.5.05-2.26.05s-1.61,0-2.48-.05a.41.41,0,0,0,0,.17,1.12,1.12,0,0,0,0,.22,8.27,8.27,0,0,1,1.34.2c.27.08.41.21.41.39a.76.76,0,0,1-.06.32l-3.85,8.06h-.1l-3.89-8L28.46,46a.45.45,0,0,1,.37-.45,7.47,7.47,0,0,1,1.65-.15.56.56,0,0,0,0-.21.65.65,0,0,0,0-.18c-1,.05-2,.07-3.15.07h-1l5.93,12,5.2-10.74a1.44,1.44,0,0,1,.76-.66,4.37,4.37,0,0,1,1.24-.25.48.48,0,0,0,0-.22A.41.41,0,0,0,39.49,45Z" transform="translate(-16.85 -11.18)"/><path class="cls-2" d="M68.26,20.36a18.26,18.26,0,0,0-6.49-6.63,13.47,13.47,0,0,0-8.94-1.51,19.54,19.54,0,0,0-8.33,3.84A33.43,33.43,0,0,0,38,22.68a53.43,53.43,0,0,0-8.3,16.66A60.83,60.83,0,0,0,27,57.73C27.1,63.9,28.22,70.15,31,75.46a18.57,18.57,0,0,0,5.63,6.6,12.22,12.22,0,0,0,8,2.22,17.61,17.61,0,0,0,8.2-2.88,33.39,33.39,0,0,0,6.88-6,47.18,47.18,0,0,0,5.45-7.56,65.15,65.15,0,0,0,4.22-8.44l.28.09a54.23,54.23,0,0,1-3.29,9,49,49,0,0,1-5,8.25,32.47,32.47,0,0,1-7,6.85,20.13,20.13,0,0,1-9.42,3.67,15.28,15.28,0,0,1-10-2.65,21,21,0,0,1-6.49-7.79c-3-6-3.89-12.65-3.83-19.1a63.09,63.09,0,0,1,3.26-19,54.87,54.87,0,0,1,9-17,34.77,34.77,0,0,1,7-6.67,20.55,20.55,0,0,1,8.89-3.76,14.22,14.22,0,0,1,9.38,1.88,18.69,18.69,0,0,1,6.45,7Z" transform="translate(-16.85 -11.18)"/><path class="cls-2" d="M67.65,45a.45.45,0,0,0,0,.18.8.8,0,0,0,0,.21c1.11.08,1.82.42,2.11,1l1.86,3.68-2.06,4.28h-.1q-4.24-8.18-4.27-8.26a.5.5,0,0,1,0-.16c0-.15.12-.28.35-.37a3.78,3.78,0,0,1,1.25-.18.58.58,0,0,0,0-.21.85.85,0,0,0,0-.18c-1,.05-1.89.07-2.71.07H63l6.24,12,2.85-6,3.17,6.27h.48L69.66,45Q68.6,45,67.65,45Z" transform="translate(-16.85 -11.18)"/><path class="cls-2" d="M60.51,45a.45.45,0,0,0,0,.18.8.8,0,0,0,0,.21c1.26.09,2,.43,2.35,1l5.78,10.95h.47L62.71,45Z" transform="translate(-16.85 -11.18)"/><path class="cls-2" d="M83.11,45c-.75,0-1.5.05-2.27.05s-1.61,0-2.47-.05a.45.45,0,0,0-.05.17,1.65,1.65,0,0,0,.05.22,8.29,8.29,0,0,1,1.33.2c.28.08.41.21.41.39a.76.76,0,0,1-.06.32l-3.84,8.06H76.1l-3.88-8c-.1-.26-.15-.4-.15-.41a.45.45,0,0,1,.37-.45,7.47,7.47,0,0,1,1.65-.15.56.56,0,0,0,0-.21.65.65,0,0,0,0-.18c-1,.05-2,.07-3.15.07H70l5.94,12L81.1,46.28a1.46,1.46,0,0,1,.77-.66,4.29,4.29,0,0,1,1.24-.25.67.67,0,0,0,0-.22A.68.68,0,0,0,83.11,45Z" transform="translate(-16.85 -11.18)"/><circle class="cls-1" cx="58.65" cy="22.62" r="5.19"/><polygon class="cls-2" points="55.48 14.91 51.5 7.08 54.21 5.25 55.48 14.91"/><polygon class="cls-2" points="55.48 14.91 46.98 10.13 49.69 8.29 55.48 14.91"/><polygon class="cls-3" points="55.48 14.91 49.69 8.29 51.5 8.94 51.5 7.08 55.48 14.91"/><path class="cls-2" d="M68.3,20.1C69.05,21,69.73,22,70.42,23s1.32,2,1.91,3.07c-.76-.94-1.44-1.94-2.12-2.93S68.88,21.16,68.3,20.1Z" transform="translate(-16.85 -11.18)"/><path class="cls-2" d="M52.86,56.78a7.41,7.41,0,0,1-.74-.12,1.86,1.86,0,0,1-.67-.23.49.49,0,0,1-.24-.37c0-.72-.06-1.4-.07-2l-6.32-8.89-2.5-.05a.58.58,0,0,0,0,.18,1.72,1.72,0,0,0,0,.21,6.83,6.83,0,0,1,1.44.22,2.3,2.3,0,0,1,1,.57l4.11,5.63c0,1.4-.06,2.79-.13,4.17a.48.48,0,0,1-.25.37,1.74,1.74,0,0,1-.66.23c-.3.06-.54.1-.74.12s-.46,0-.79.07a.68.68,0,0,0,0,.23.73.73,0,0,0,0,.16c1.19,0,2.41-.05,3.67-.05s2.48,0,3.66.05a.47.47,0,0,0,0-.16.56.56,0,0,0,0-.23C53.32,56.83,53.06,56.81,52.86,56.78Z" transform="translate(-16.85 -11.18)"/><path class="cls-2" d="M57.68,45.08c-.8,0-1.6.05-2.39.05s-1.56,0-2.47-.05a.37.37,0,0,0,0,.16,1.3,1.3,0,0,0,0,.23,7.25,7.25,0,0,1,1.25.19c.28.08.42.2.42.37a.58.58,0,0,1-.13.34L50.82,51h-.08L47.5,46.44a1,1,0,0,1-.17-.37c0-.2.19-.34.57-.43a9.55,9.55,0,0,1,1.81-.17,1,1,0,0,0,0-.21,1.63,1.63,0,0,0,0-.18c-1.06,0-2.25.06-3.56.06h-.92l5.89,8.3c0-.55,0-1.06,0-1.55l4.37-5.52a2.07,2.07,0,0,1,.9-.66,4.87,4.87,0,0,1,1.3-.24.73.73,0,0,0,0-.23A.62.62,0,0,0,57.68,45.08Z" transform="translate(-16.85 -11.18)"/></svg>